<?xml version="1.0" encoding="UTF-8" standalone="no"?>
<svg
   height="24"
   viewBox="0 -960 960 960"
   width="24"
   version="1.1"
   id="svg1"
   sodipodi:docname="graph_icon.svg"
   xmlns:inkscape="http://www.inkscape.org/namespaces/inkscape"
   xmlns:sodipodi="http://sodipodi.sourceforge.net/DTD/sodipodi-0.dtd"
   xmlns="http://www.w3.org/2000/svg"
   xmlns:svg="http://www.w3.org/2000/svg">
  <defs
     id="defs1" />
  <sodipodi:namedview
     id="namedview1"
     pagecolor="#ffffff"
     bordercolor="#000000"
     borderopacity="0.25"
     inkscape:showpageshadow="2"
     inkscape:pageopacity="0.0"
     inkscape:pagecheckerboard="0"
     inkscape:deskcolor="#d1d1d1" />
  <path
     d="m 191.08152,-99.200997 c -50.35039,2.341067 -93.399865,-47.636533 -86.51403,-96.958613 -0.58318,-230.15066 -0.52787,-460.30235 -0.74036,-690.45355 29.50026,0 59.00051,0 88.50077,0 0.37307,232.98105 0.58809,465.96236 0.5244,698.94373 19.80576,-0.70119 40.14295,0.98724 59.61652,-1.20764 34.59191,-20.50971 45.15954,-63.53088 56.81179,-99.60333 41.85901,-157.27716 39.7442,-323.88716 93.65482,-478.23298 20.52446,-56.72159 63.95614,-114.58955 128.39883,-120.07581 59.09371,-5.46081 111.89255,37.41632 135.178,89.37118 49.91955,108.50475 56.95129,229.81157 76.08253,346.16819 13.35814,78.41468 21.32591,160.4841 58.51815,231.99223 10.46136,20.78057 30.29136,36.65991 54.17739,31.51544 11.67345,0.88404 26.41746,-1.80812 36.1994,1.2789 1.15952,29.19779 0.15443,58.43819 0.11195,87.654 -233.50666,-0.110963 -467.0141,0.03959 -700.52016,-0.391747 z m 524.55217,-89.005813 c -54.03284,-123.35355 -59.11718,-260.14863 -82.31217,-391.11162 -12.99353,-67.91737 -20.93811,-140.57965 -59.91702,-199.53794 -25.25879,-41.95706 -71.79629,-4.41525 -81.05231,29.6828 -38.47548,96.61294 -45.98879,201.83704 -62.41584,303.68332 -13.20075,87.10635 -25.78207,175.93541 -62.07119,257.01312 115.91576,0.7676 231.85203,0.8733 347.76853,0.27032 z"
     id="path1" />
</svg>
